<svg width="391" height="60" viewBox="0 0 391 60" fill="none" xmlns="http://www.w3.org/2000/svg">
    <g clip-path="url(#clip0_1_3)">
        <path
            d="M12.9929 7.58146L16.3697 17.5554H9.57137L12.9929 7.58146ZM9.92918 0.0898438L0 28.7145H5.7473L7.82706 22.7436H18.0917L20.1267 28.7145H25.9187L16.079 0.268748L16.0119 0.0898438H9.92918Z"
            fill="white" />
        <path
            d="M45.9786 1.31923C44.9946 0.603608 43.7199 0.178711 42.4676 0.178711H29.0498V28.7139H42.4676C43.6976 28.7139 45.0841 28.289 45.9786 27.6181C46.6719 27.1262 48.1031 25.6949 48.5504 25.0464C49.1094 24.219 49.4002 23.1903 49.4002 22.0721V18.5164C49.4002 16.5261 48.6174 15.4974 47.6558 14.491C48.7516 13.3505 49.4002 12.2771 49.4002 10.421V6.95471C49.4002 6.12727 49.2436 4.89731 48.5504 3.86861C48.1031 3.24245 46.6719 1.78885 45.9786 1.29686M43.9659 10.5552C43.6305 11.226 42.736 11.8969 42.4676 11.8969H34.484V5.41166H42.4005C42.6689 5.41166 43.5187 6.12728 43.9436 6.86525C43.9436 6.90998 43.9659 6.97707 43.9659 6.99943V10.2644L43.9212 10.5552H43.9659ZM34.484 16.951H42.4005C42.6689 16.951 43.5187 17.6666 43.9436 18.4046C43.9436 18.4493 43.9659 18.5164 43.9659 18.5388V21.8038L43.9212 22.0945C43.5858 22.7654 42.6912 23.4139 42.4229 23.4139H34.4393V16.9286L34.484 16.951Z"
            fill="white" />
        <path
            d="M70.9356 1.31923C69.9517 0.603608 68.677 0.178711 67.4247 0.178711H54.0068V28.7139H67.4247C68.6546 28.7139 70.0411 28.289 70.9356 27.6181C71.6289 27.1262 73.0601 25.6949 73.5074 25.0464C74.0665 24.219 74.3572 23.1903 74.3572 22.0721V18.5164C74.3572 16.5261 73.5745 15.4974 72.6129 14.491C73.7087 13.3505 74.3572 12.2771 74.3572 10.421V6.95471C74.3572 6.12728 74.2006 4.89731 73.5074 3.86861C73.0601 3.24245 71.6289 1.78885 70.9356 1.29686M68.923 10.5552C68.5875 11.226 67.693 11.8969 67.4247 11.8969H59.4411V5.41166H67.3576C67.6259 5.41166 68.4757 6.12727 68.9006 6.86525C68.9006 6.90998 68.923 6.97707 68.923 6.99943V10.2644L68.8782 10.5552H68.923ZM59.4411 16.951H67.3576C67.6259 16.951 68.4757 17.6666 68.9006 18.4046C68.9006 18.4493 68.923 18.5164 68.923 18.5388V21.8038L68.8782 22.0945C68.5428 22.7654 67.6483 23.4139 67.3799 23.4139H59.3963V16.9286L59.4411 16.951Z"
            fill="white" />
        <path d="M110.451 0.246094H89.832V5.38959H97.4578V28.7142H102.803V5.38959H110.451V0.246094Z" fill="white" />
        <path
            d="M123.176 22.5197L123.086 22.6315L122.84 22.9893C122.393 23.4813 121.677 24.0627 121.431 24.0627L116.847 24.018C116.534 24.018 115.662 23.28 115.214 22.542C115.214 22.4973 115.192 22.4302 115.17 22.3855V20.8648H127.984V14.0217C127.984 12.8141 127.693 11.8078 127.089 11.0027C126.687 10.4213 125.501 9.21365 124.763 8.67694C123.802 8.00605 122.438 7.60352 121.185 7.60352H116.825C115.572 7.60352 114.186 8.02841 113.246 8.67694C112.508 9.21365 111.301 10.466 110.921 11.0027C110.295 11.8749 109.981 12.8812 109.981 14.0217V22.4973C109.981 23.6602 110.295 24.7112 110.921 25.561C111.301 26.0754 112.486 27.3277 113.246 27.8868C114.163 28.5353 115.505 28.9155 116.825 28.9155H121.275C122.393 28.9155 123.824 28.4682 124.808 27.7973C125.591 27.2606 127.425 25.3821 127.917 24.1969L128.006 23.9733L123.399 22.5867L123.176 22.542V22.5197ZM122.795 15.9673H115.147V13.977C115.595 13.2614 116.489 12.5234 116.825 12.5234H121.118C121.118 12.5234 121.252 12.5234 121.297 12.5234C121.834 12.8365 122.527 13.5297 122.795 13.9546V15.9449V15.9673Z"
            fill="white" />
        <path
            d="M145.449 22.4525L145.315 22.6314L145.024 23.0339C144.577 23.4812 143.928 24.0402 143.682 24.0402H141.558L139.053 23.9955C139.053 23.9955 138.941 23.9508 138.896 23.9284C138.36 23.6153 137.689 23.0563 137.376 22.5643V13.9545C137.689 13.4625 138.382 12.9035 138.896 12.5904C138.941 12.5904 138.986 12.5904 139.075 12.5904H143.526C143.816 12.5904 144.666 13.3284 145.091 13.8427C145.113 13.8651 145.292 14.1558 145.292 14.1558L150.212 12.7022L150.1 12.4338C149.608 11.2486 147.752 9.3701 146.925 8.81102C146.097 8.25195 144.666 7.58105 143.369 7.58105H139.008C137.756 7.58105 136.369 8.00595 135.408 8.67684C134.67 9.21356 133.485 10.4212 133.082 11.0026C132.478 11.8077 132.188 12.8364 132.188 14.044V22.5196C132.188 23.7272 132.501 24.7559 133.082 25.5609C133.462 26.1424 134.67 27.3947 135.408 27.9538C136.347 28.6023 137.689 28.9825 139.008 28.9825H141.133L143.548 29.0272C144.8 29.0272 146.254 28.4458 147.104 27.842C147.886 27.3052 149.72 25.4044 150.234 24.2191L150.346 23.9508L145.471 22.4748L145.449 22.4525Z"
            fill="white" />
        <path
            d="M168.505 8.43125C167.61 7.76036 166.201 7.33546 164.949 7.33546H161.55C160.544 7.33546 159.604 7.78273 158.978 8.1629V0.0898438H153.768V28.7145H158.978V14.3575C159.604 13.6195 161.192 12.3895 161.662 12.3895H164.927C164.927 12.3895 165.016 12.3895 165.061 12.4119C165.061 12.4119 165.083 12.4119 165.106 12.4119C165.575 12.725 166.157 13.2617 166.47 13.776L166.514 28.6922H171.77V13.8207C171.77 12.6579 171.479 11.6739 170.875 10.7794C170.473 10.2427 169.332 8.9456 168.55 8.40889"
            fill="white" />
        <path
            d="M191.271 8.65448C190.31 7.98359 188.923 7.58105 187.671 7.58105H184.182C183.31 7.58105 182.415 7.89414 181.387 8.56503L181.275 7.75996H176.042L176.534 12.2326V28.7141H181.789V14.3123C182.818 13.2165 183.757 12.568 184.316 12.568H187.626C187.626 12.568 187.805 12.568 187.85 12.5904H187.894C188.342 12.8811 188.923 13.4178 189.191 13.8874C189.191 13.9545 189.214 14.0216 189.236 14.0887V28.6917H194.491V13.9992C194.491 12.7916 194.178 11.7629 193.597 10.9802C193.194 10.3764 192.009 9.19119 191.249 8.63212"
            fill="white" />
        <path d="M205.001 7.51367H199.746V28.7138H205.001V7.51367Z" fill="white" />
        <path d="M205.203 0H199.612V5.59076H205.203V0Z" fill="white" />
        <path
            d="M229.109 7.67042H222.177L215.557 14.916V0.201172H210.548V28.6022H215.557V20.5292L222.602 28.5575L222.646 28.6022H229.512L219.873 17.6667L229.109 7.67042Z"
            fill="white" />
        <path
            d="M244.204 22.4749L244.115 22.6315L243.869 22.9893C243.421 23.4589 242.728 24.0627 242.46 24.0627L240.559 24.018H237.875C237.562 24.018 236.69 23.28 236.243 22.542C236.243 22.4973 236.22 22.4302 236.22 22.3855V20.8648H249.034V14.0217C249.034 12.8365 248.744 11.8078 248.14 11.0027C247.737 10.4213 246.552 9.21365 245.814 8.67694C244.853 8.00605 243.488 7.60352 242.236 7.60352H237.875C236.623 7.60352 235.259 8.02841 234.297 8.67694C233.537 9.23602 232.352 10.466 231.971 11.0027C231.345 11.8749 231.032 12.8812 231.032 14.0217V22.4973C231.032 23.6602 231.368 24.7112 231.971 25.561C232.352 26.0754 233.537 27.3277 234.297 27.8868C235.214 28.5353 236.556 28.9155 237.875 28.9155H242.326C243.466 28.9155 244.875 28.4682 245.859 27.7973C246.642 27.2606 248.475 25.3821 248.967 24.1969L249.057 23.9733L244.226 22.4973L244.204 22.4749ZM243.824 15.9673H236.176V13.977C236.623 13.2614 237.518 12.5234 237.853 12.5234H242.147C242.147 12.5234 242.281 12.5234 242.326 12.5234C242.862 12.8365 243.556 13.5297 243.824 13.9546V15.9449V15.9673Z"
            fill="white" />
        <path
            d="M267.618 8.78885C266.768 8.20742 265.337 7.62598 264.085 7.62598H261.245C260.395 7.62598 259.456 7.96142 258.405 8.67704L258.315 7.80488H253.149L253.552 12.2328V28.6919H258.718V14.402C259.456 13.5075 260.529 12.5682 261.379 12.5682H263.325L264.241 12.5235C264.555 12.5235 265.36 13.2615 265.807 13.7982C265.829 13.8205 265.963 14.0889 265.963 14.0889L270.839 12.6353L270.749 12.4117C270.257 11.2264 268.401 9.37029 267.596 8.81122"
            fill="white" />
        <path
            d="M285.486 16.124C284.055 15.9675 282.333 15.8109 280.835 15.6768C279.627 15.5649 278.621 15.4755 278.062 15.4084C277.726 15.386 277.547 15.0953 277.547 15.0506V13.8654C277.547 13.8654 277.57 13.5746 277.592 13.4852C277.838 13.0603 278.375 12.5907 278.576 12.4565C278.8 12.4118 279.113 12.367 279.113 12.367H283.652C283.943 12.367 284.77 13.105 285.218 13.6194C285.24 13.6417 285.397 13.9324 285.397 13.9324L290.316 12.4565L290.205 12.1881C289.713 11.0029 287.857 9.12439 287.029 8.56532C286.045 7.89443 284.614 7.4248 283.473 7.4248H278.934C276.675 7.4248 274.752 8.52059 273.231 10.6898C272.627 11.5172 272.337 12.5459 272.337 13.7312V15.2071C272.337 18.1143 274.126 20.0823 277.01 20.2835C278.598 20.4177 280.432 20.5519 281.997 20.6861C283.093 20.7755 284.077 20.8426 284.77 20.9097C285.173 20.9544 285.195 21.2228 285.195 21.3122V22.4975C285.195 23.0118 284.144 23.9958 283.697 23.9958H278.509C278.24 23.9734 277.592 23.4367 277.145 22.9895L276.697 22.4528L271.822 23.884L271.934 24.1524C272.426 25.3376 274.282 27.2384 275.065 27.7752C275.915 28.3566 277.346 28.9604 278.621 28.9604H282.735L283.742 28.9157C284.726 28.871 286.112 28.6697 287.23 27.887C288.035 27.3279 289.042 26.2097 289.422 25.6507C290.048 24.8009 290.361 23.7498 290.361 22.6093V21.2452C290.361 18.338 288.572 16.4595 285.441 16.124"
            fill="white" />
        <path
            d="M307.693 22.4301L307.29 23.0339C306.843 23.5035 306.195 24.0402 305.949 24.0402H303.824L301.319 23.9955C301.319 23.9955 301.208 23.9508 301.163 23.9284C300.626 23.6153 299.955 23.0563 299.642 22.5643V13.9545C299.955 13.4625 300.626 12.9035 301.163 12.5904C301.208 12.5904 301.252 12.5904 301.319 12.5904H305.77C306.06 12.5904 306.91 13.3284 307.335 13.8427C307.357 13.8651 307.536 14.1558 307.536 14.1558L312.456 12.7022L312.344 12.4338C311.852 11.2486 309.996 9.3701 309.169 8.81102C308.274 8.20722 306.843 7.58105 305.613 7.58105H301.252C299.978 7.58105 298.614 7.98359 297.652 8.67684C296.914 9.21356 295.706 10.4212 295.326 11.0026C294.722 11.8077 294.432 12.8364 294.432 14.044V22.5196C294.432 23.7272 294.745 24.7559 295.326 25.5609C295.706 26.1424 296.914 27.3947 297.652 27.9538C298.569 28.6023 299.933 28.9825 301.252 28.9825H303.377L305.792 29.0272C307.067 29.0272 308.498 28.4458 309.348 27.842C310.13 27.3052 311.964 25.4044 312.456 24.2191L312.568 23.9508L308.073 22.5866L307.671 22.4301H307.693Z"
            fill="white" />
        <path
            d="M330.905 8.43125C330.011 7.76036 328.602 7.33546 327.349 7.33546H323.95C322.944 7.33546 322.005 7.78273 321.379 8.1629V0.0898438H316.168V28.7145H321.379V14.3575C322.005 13.6195 323.592 12.3895 324.062 12.3895H327.327C327.327 12.3895 327.417 12.3895 327.461 12.4119C327.461 12.4119 327.484 12.4119 327.506 12.4119C327.976 12.725 328.557 13.2617 328.87 13.776V28.6922H334.148V13.8207C334.148 12.6579 333.857 11.6739 333.253 10.7794C332.851 10.2427 331.71 8.9456 330.928 8.40889"
            fill="white" />
        <path
            d="M356.511 7.80469H351.256V22.2065C350.562 22.8997 349.042 23.9955 348.729 23.9955H345.374C345.374 23.9955 345.262 23.9955 345.218 23.9732C345.218 23.9732 345.195 23.9732 345.173 23.9732C344.636 23.6377 344.01 23.101 343.764 22.6761C343.764 22.609 343.764 22.5419 343.742 22.4972V7.80469H338.486V22.4972C338.486 23.7048 338.799 24.7335 339.381 25.5386C339.761 26.12 340.969 27.3723 341.707 27.9314C342.646 28.5799 343.988 28.9825 345.307 28.9825H348.863C349.891 28.9825 350.853 28.4681 351.636 27.9538L351.703 28.7812H356.958L356.511 24.3086V7.80469Z"
            fill="white" />
        <path
            d="M366.843 26.0757C366.754 25.4048 366.686 24.8904 366.686 24.4432V0.0898438H361.543V24.9575C361.543 25.6508 361.744 26.7913 361.878 27.7082C361.923 27.9989 361.968 28.2673 362.013 28.5133V28.7369H367.134V28.4462C367.022 27.4398 366.91 26.6795 366.843 26.098"
            fill="white" />
        <path
            d="M384.397 22.4973L384.33 22.6315L384.084 22.9893C383.637 23.4813 382.921 24.0627 382.675 24.0627L380.775 24.018H378.069C377.756 24.018 376.883 23.28 376.436 22.542C376.436 22.4973 376.414 22.4302 376.414 22.3855V20.8648H389.228V14.0217C389.228 12.8141 388.937 11.8078 388.333 11.0027C387.931 10.3989 386.746 9.21365 386.008 8.67694C385.046 8.00605 383.682 7.60352 382.429 7.60352H378.069C376.816 7.60352 375.452 8.02841 374.491 8.67694C373.753 9.21365 372.545 10.466 372.165 11.0027C371.539 11.8525 371.226 12.9036 371.226 14.0217V22.4973C371.226 23.6378 371.561 24.7112 372.165 25.561C372.545 26.0754 373.73 27.3277 374.491 27.8868C375.407 28.5353 376.749 28.9155 378.069 28.9155H382.519C383.637 28.9155 385.068 28.4682 386.052 27.7973C386.813 27.2606 388.669 25.3821 389.161 24.1969L389.25 23.9733L384.397 22.5197V22.4973ZM384.04 15.9673H376.391V13.977C376.839 13.2614 377.733 12.5234 378.069 12.5234H382.385C382.385 12.5234 382.519 12.5234 382.564 12.5234C383.1 12.8365 383.794 13.5297 384.062 13.9546V15.9449L384.04 15.9673Z"
            fill="white" />
        <path d="M6.08255 46.2694V56.467H3.95807V46.2694H0.625977V44.2344H9.43701V46.2694H6.08255Z" fill="white" />
        <path
            d="M11.5386 53.0682V53.8285V53.9404C11.7176 54.2534 12.1424 54.656 12.3437 54.656H14.3564C14.5577 54.656 15.0049 54.2311 15.1167 54.0969C15.1615 54.0522 15.1838 54.0298 15.1838 54.0074L17.107 54.5889C16.9058 55.0809 16.1231 55.8859 15.7876 56.1096C15.3851 56.3779 14.8036 56.5792 14.2893 56.5792H12.3437C11.8294 56.5792 11.2479 56.445 10.823 56.1543C10.5099 55.9307 9.9956 55.394 9.83906 55.1703C9.5707 54.7902 9.43652 54.3429 9.43652 53.8733V50.161C9.43652 49.7137 9.5707 49.2665 9.83906 48.8863C9.9956 48.6627 10.5323 48.126 10.823 47.9023C11.2256 47.6116 11.807 47.4551 12.3437 47.4551H14.2446C14.7589 47.4551 15.3404 47.6116 15.7653 47.9023C16.0783 48.126 16.5927 48.6403 16.7492 48.8863C17.04 49.2888 17.1294 49.7361 17.1294 50.161V53.0682H11.5163H11.5386ZM15.072 50.2057V50.1163C14.9378 49.915 14.6247 49.5796 14.3788 49.423C14.334 49.423 14.2893 49.423 14.2446 49.423H12.3661C12.1648 49.423 11.7176 49.8256 11.5386 50.1163V51.1003H15.072V50.1834V50.2057Z"
            fill="white" />
        <path
            d="M25.7397 56.1087C25.3371 56.377 24.7557 56.6007 24.2414 56.6007H23.1903H22.251C21.7367 56.6007 21.1553 56.4441 20.7304 56.1534C20.4173 55.9298 19.9029 55.3931 19.7464 55.1471C19.4557 54.7445 19.3662 54.2973 19.3662 53.8948V50.1825C19.3662 49.78 19.4557 49.3103 19.7464 48.9302C19.9029 48.6842 20.4396 48.1698 20.7304 47.9238C21.1553 47.6331 21.7143 47.4766 22.251 47.4766H24.1519C24.6439 47.4766 25.2477 47.7226 25.6502 47.9909C25.9857 48.2145 26.7907 49.0196 26.992 49.5116L25.0464 50.093C25.0464 50.093 25.0464 50.0483 24.9793 50.0036C24.8452 49.8694 24.4203 49.4221 24.219 49.4221H22.2734C22.2734 49.4221 22.184 49.4221 22.1392 49.4221C21.8932 49.5787 21.5578 49.847 21.4012 50.093V50.1825V53.9395C21.5354 54.1855 21.8709 54.4538 22.1392 54.6104C22.1392 54.6104 22.2287 54.6551 22.2734 54.6551H23.3692H24.3084C24.5097 54.6551 24.957 54.2302 25.0688 54.0737C25.1135 54.0289 25.1359 54.0066 25.1359 53.9842L27.0591 54.5656C26.8578 55.0576 26.0751 55.8627 25.7397 56.1087Z"
            fill="white" />
        <path
            d="M34.372 56.4668V50.0038C34.2155 49.7578 33.9247 49.4895 33.6788 49.3329C33.6788 49.3329 33.6117 49.3329 33.5446 49.3329H32.1133C31.845 49.3329 31.0846 49.9591 30.8386 50.2722V56.4891H28.7812V44.1895H30.8386V47.8123C31.1965 47.5663 31.6437 47.365 32.0686 47.365H33.5669C34.0589 47.365 34.6627 47.5215 35.0653 47.8123C35.4007 48.0359 35.8927 48.595 36.0492 48.8186C36.3176 49.2211 36.4294 49.6237 36.4294 50.0933V56.4891H34.3496L34.372 56.4668Z"
            fill="white" />
        <path
            d="M44.4132 56.4663V50.1823C44.4132 50.1823 44.4132 50.0928 44.4132 50.0481C44.279 49.8245 43.9883 49.5561 43.7647 49.3996C43.7647 49.3996 43.6529 49.3996 43.6081 49.3996H42.1545C41.752 49.3996 41.1929 49.9363 40.9246 50.227V56.4663H38.8448V49.3549L38.6436 47.5211H40.7233L40.7904 47.946C41.1706 47.6776 41.6178 47.4316 42.0875 47.4316H43.6305C44.1449 47.4316 44.7263 47.5882 45.1512 47.8789C45.4643 48.1025 45.9786 48.6169 46.1352 48.8629C46.4259 49.2654 46.5153 49.7127 46.5153 50.1376V56.4663H44.4356H44.4132Z"
            fill="white" />
        <path d="M48.9297 44.123H51.1436V46.337H48.9297V44.123ZM48.9968 47.4104H51.0765V56.4674H48.9968V47.4104Z"
            fill="white" />
        <path
            d="M58.9711 56.4657L55.7956 52.8205V56.4657H53.7158V44.166H55.7956V50.7184L58.7699 47.4534H61.6323L57.6517 51.7471L61.8112 56.4657H58.9711Z"
            fill="white" />
        <path d="M66.5973 53.9395H64.0703V56.4888H66.5973V53.9395Z" fill="white" />
        <path d="M75.8109 44.2344H73.6641V56.467H75.8109V44.2344Z" fill="white" />
        <path
            d="M84.0401 56.4663V50.1823C84.0401 50.1823 84.0401 50.0928 84.0401 50.0481C83.9059 49.8245 83.6152 49.5561 83.3915 49.3996C83.3915 49.3996 83.2797 49.3996 83.2126 49.3996H81.759C81.3565 49.3996 80.7974 49.9363 80.5291 50.227V56.4663H78.4493V49.3549L78.248 47.5211H80.3278L80.3949 47.946C80.7751 47.6776 81.2223 47.4316 81.6919 47.4316H83.235C83.7493 47.4316 84.3308 47.5882 84.7557 47.8789C85.0688 48.1025 85.5831 48.6169 85.7397 48.8629C86.0304 49.2654 86.1198 49.7127 86.1198 50.1376V56.4663H84.0401Z"
            fill="white" />
        <path
            d="M92.2693 46.0901C92.2693 46.0901 92.1127 46.0901 92.0904 46.0901C91.9115 46.2019 91.4642 46.515 91.4419 46.7163V47.5884H92.8731V49.5564H91.4419V56.4442H89.3621V49.5564H87.9756V47.5884H89.3621V46.8505C89.3621 46.4256 89.4515 45.9559 89.7423 45.5758C89.8988 45.3521 90.4132 44.8154 90.7262 44.5918C91.1511 44.3011 91.7102 44.1445 92.2469 44.1445H93.9912V46.1125H92.2693V46.0901Z"
            fill="white" />
        <path
            d="M102.087 55.1256C101.931 55.3716 101.394 55.9083 101.103 56.1319C100.701 56.4227 100.119 56.5568 99.5825 56.5568H97.6369C97.1225 56.5568 96.5635 56.4227 96.1386 56.1319C95.8255 55.9083 95.2888 55.3716 95.1322 55.1256C94.8415 54.7231 94.7744 54.2758 94.7744 53.8733V50.161C94.7744 49.7585 94.8415 49.2888 95.1322 48.9087C95.2888 48.6627 95.8255 48.1483 96.1386 47.9023C96.5635 47.6116 97.1225 47.4551 97.6369 47.4551H99.5825C100.097 47.4551 100.678 47.6116 101.103 47.9023C101.416 48.126 101.931 48.6403 102.087 48.9087C102.378 49.3112 102.445 49.7585 102.445 50.161V53.8733C102.445 54.2982 102.378 54.7454 102.087 55.1256ZM100.365 53.8285V50.2281C100.365 50.2281 100.365 50.1386 100.365 50.1163C100.231 49.915 99.9403 49.6019 99.6719 49.4454C99.6272 49.4454 99.6048 49.4454 99.5601 49.4454H97.6592C97.6592 49.4454 97.5922 49.4454 97.5474 49.4454C97.3014 49.5796 96.9884 49.8703 96.8542 50.1163V50.2281L96.8318 53.8285V53.9627C96.8318 54.1193 97.2791 54.4547 97.5251 54.6112C97.5251 54.6112 97.6145 54.6112 97.6592 54.6112H99.5601C99.5601 54.6112 99.6496 54.6112 99.6943 54.5665C99.8732 54.4547 100.365 54.1193 100.365 53.9404V53.8062V53.8285Z"
            fill="white" />
        <path
            d="M110.004 50.0479C110.004 50.0479 109.981 50.0032 109.937 49.9585C109.825 49.8019 109.378 49.3547 109.176 49.377H108.774H107.924C107.454 49.377 106.918 49.9361 106.649 50.2492V56.4437H104.592V49.3323L104.413 47.4762H106.493L106.538 47.9234C106.918 47.6551 107.387 47.3867 107.857 47.3867H109.087C109.579 47.3867 110.183 47.6103 110.585 47.8787C110.921 48.1023 111.726 48.9074 111.927 49.4218L109.981 50.0032L110.004 50.0479Z"
            fill="white" />
        <path
            d="M123.153 56.4672V50.1832C123.153 50.1832 123.131 50.0937 123.131 50.049C122.996 49.8254 122.728 49.557 122.482 49.4005C122.482 49.4005 122.37 49.4005 122.326 49.4005H121.364C120.961 49.4005 120.402 49.9372 120.134 50.2279V56.4672H118.054V50.1832C118.054 50.1832 118.054 50.0937 118.054 50.049C117.92 49.8254 117.629 49.557 117.406 49.4005C117.406 49.4005 117.294 49.4005 117.249 49.4005H116.31C115.773 49.4005 115.348 49.9372 115.08 50.2279V56.4672H113V49.3557L112.821 47.522H114.901L114.946 47.9469C115.326 47.6785 115.773 47.4325 116.243 47.4325H117.272C117.786 47.4325 118.367 47.5891 118.77 47.8798C118.949 47.9916 119.172 48.2152 119.374 48.4165L119.821 48.0587C120.179 47.7903 120.85 47.4102 121.319 47.4102H122.348C122.862 47.4102 123.444 47.5667 123.869 47.8574C124.182 48.081 124.696 48.5954 124.853 48.8414C125.143 49.2439 125.233 49.6912 125.233 50.1161V56.4448H123.153V56.4672Z"
            fill="white" />
        <path
            d="M133.082 56.4889L133.015 56.064C132.635 56.3323 132.188 56.5783 131.718 56.5783H130.019C129.504 56.5783 128.945 56.4218 128.52 56.1311C128.207 55.9074 127.715 55.3931 127.536 55.1471C127.268 54.7669 127.156 54.342 127.156 53.8948V53.5146C127.156 53.0673 127.268 52.6201 127.536 52.2399C127.693 52.0163 128.207 51.5019 128.52 51.2783C128.945 50.9876 129.482 50.831 130.019 50.831H132.904V50.1154C132.769 49.9141 132.456 49.6011 132.21 49.4445C132.166 49.4445 132.121 49.3998 132.076 49.3998H130.265C130.063 49.3998 129.616 49.8247 129.504 49.9812C129.46 50.0259 129.437 50.0483 129.437 50.0707L127.492 49.4892C127.693 48.9972 128.498 48.1922 128.833 47.9686C129.236 47.7002 129.817 47.4766 130.332 47.4766H132.121C132.635 47.4766 133.217 47.6331 133.642 47.9238C133.955 48.1475 134.469 48.6394 134.626 48.9078C134.916 49.3103 134.983 49.78 134.983 50.2049V54.6998L135.162 56.5336H133.105L133.082 56.4889ZM132.926 52.7766H130.041C130.041 52.7766 129.929 52.7766 129.907 52.7766C129.683 52.9108 129.37 53.2239 129.214 53.4699V53.8948C129.348 54.1407 129.661 54.4315 129.907 54.5656C129.907 54.5656 129.996 54.6104 130.041 54.6104H131.651C131.875 54.6104 132.747 53.9395 132.904 53.7606V52.7542L132.926 52.7766Z"
            fill="white" />
        <path
            d="M140.126 49.5564V53.8277C140.261 54.0514 140.663 54.521 140.954 54.521H142.676V56.4889H140.931C140.417 56.4889 139.858 56.3547 139.433 56.0417C139.098 55.818 138.606 55.259 138.449 55.0353C138.181 54.6328 138.047 54.1855 138.047 53.7383V49.5787H136.66V47.5884H138.047V44.1445H140.126V47.5884H142.698V49.5787H140.126V49.5564Z"
            fill="white" />
        <path d="M144.711 44.123H146.925V46.337H144.711V44.123ZM144.778 47.4104H146.858V56.4674H144.778V47.4104Z"
            fill="white" />
        <path
            d="M154.819 56.4657L151.621 52.8205V56.4657H149.541V44.166H151.621V50.7184L154.595 47.4534H157.458L153.477 51.7471L157.636 56.4657H154.819Z"
            fill="white" />
        <path d="M162.423 53.9395H159.896V56.4888H162.423V53.9395Z" fill="white" />
        <path
            d="M180.201 56.4659H177.741L175.773 48.3034L173.783 56.4659H171.345L168.527 44.2109H170.741L172.597 52.8207L174.61 44.2109H176.913L178.949 52.8207L180.76 44.2109H183.041L180.201 56.4659Z"
            fill="white" />
        <path d="M184.405 44.123H186.619V46.337H184.405V44.123ZM184.472 47.4104H186.552V56.4674H184.472V47.4104Z"
            fill="white" />
        <path
            d="M194.178 50.0479C194.178 50.0479 194.178 50.0032 194.111 49.9585C193.977 49.8019 193.552 49.3547 193.35 49.377H192.97H192.12C191.651 49.377 191.114 49.9361 190.846 50.2492V56.4437H188.788V49.3323L188.632 47.4762H190.712L190.756 47.9234C191.137 47.6551 191.606 47.3867 192.076 47.3867H193.328C193.82 47.3867 194.424 47.6103 194.826 47.8787C195.162 48.1023 195.967 48.9074 196.168 49.4218L194.223 50.0032L194.178 50.0479Z"
            fill="white" />
        <path
            d="M200.104 49.5564V53.8277C200.261 54.0514 200.641 54.521 200.931 54.521H202.653V56.4889H200.909C200.395 56.4889 199.836 56.3547 199.411 56.0417C199.075 55.818 198.583 55.259 198.427 55.0353C198.158 54.6328 198.024 54.1855 198.024 53.7383V49.5787H196.638V47.5884H198.024V44.1445H200.104V47.5884H202.676V49.5787H200.104V49.5564Z"
            fill="white" />
        <path
            d="M211.912 55.1914C211.755 55.4374 211.308 55.9294 210.972 56.153C210.57 56.4437 210.011 56.5779 209.496 56.5779H209.049H207.238C206.746 56.5779 206.142 56.3543 205.739 56.0859C205.404 55.8623 204.621 55.0572 204.42 54.5429L206.343 53.9614C206.343 53.9614 206.343 54.0062 206.41 54.0509C206.544 54.2074 206.969 54.61 207.171 54.6323H209.452C209.698 54.6323 210.212 54.1627 210.212 53.872V53.3576C210.212 53.3576 210.145 53.0893 209.921 53.0669C209.206 52.9998 207.707 52.9104 206.522 52.7986C205.426 52.7091 204.576 52.0159 204.576 50.6741V50.0256C204.576 49.5783 204.688 49.131 204.957 48.7732C205.538 47.9458 206.321 47.3867 207.349 47.3867H209.34C209.832 47.3867 210.436 47.588 210.838 47.8563C211.174 48.08 211.979 48.885 212.18 49.377L210.234 49.9585C210.234 49.9585 210.234 49.9137 210.167 49.869C210.033 49.7125 209.608 49.2876 209.407 49.2876H207.417C207.417 49.2876 207.26 49.2876 207.148 49.3323C207.059 49.377 206.768 49.623 206.656 49.8467C206.656 49.8467 206.634 50.0032 206.634 50.0479V50.5623C206.634 50.5623 206.768 50.8083 206.969 50.8306C207.506 50.8977 209.094 51.0095 210.212 51.1437C211.33 51.2555 212.269 51.904 212.269 53.2682V53.872C212.269 54.3193 212.135 54.7665 211.867 55.1243"
            fill="white" />
        <path
            d="M220.656 56.1087C220.253 56.377 219.649 56.6007 219.157 56.6007H218.106H217.167C216.653 56.6007 216.071 56.4441 215.646 56.1534C215.333 55.9298 214.819 55.3931 214.64 55.1471C214.349 54.7445 214.26 54.2973 214.26 53.8948V50.1825C214.26 49.78 214.349 49.3103 214.64 48.9302C214.796 48.6842 215.333 48.1698 215.646 47.9238C216.049 47.6331 216.63 47.4766 217.167 47.4766H219.068C219.56 47.4766 220.164 47.7226 220.566 47.9909C220.902 48.2145 221.707 49.0196 221.908 49.5116L219.962 50.093C219.962 50.093 219.962 50.0483 219.895 50.0036C219.761 49.8694 219.336 49.4221 219.135 49.4221H217.189C217.189 49.4221 217.1 49.4221 217.078 49.4221C216.832 49.5787 216.496 49.847 216.362 50.093V50.1825V53.9395C216.496 54.1855 216.832 54.4538 217.078 54.6104C217.078 54.6104 217.167 54.6551 217.189 54.6551H218.285H219.224C219.426 54.6551 219.873 54.2302 219.985 54.0737C220.029 54.0289 220.052 54.0066 220.052 53.9842L221.975 54.5656C221.774 55.0576 220.991 55.8627 220.656 56.1087Z"
            fill="white" />
        <path
            d="M229.399 56.4668V50.0038C229.22 49.7578 228.952 49.4895 228.706 49.3329C228.706 49.3329 228.639 49.3329 228.572 49.3329H227.141C226.872 49.3329 226.112 49.9591 225.844 50.2722V56.4891H223.786V44.1895H225.844V47.8123C226.201 47.5663 226.649 47.365 227.096 47.365H228.594C229.086 47.365 229.69 47.5215 230.093 47.8123C230.428 48.0359 230.92 48.595 231.099 48.8186C231.367 49.2211 231.479 49.6237 231.479 50.0933V56.4891H229.399V56.4668Z"
            fill="white" />
        <path
            d="M239.329 56.4889L239.262 56.064C238.881 56.3323 238.434 56.5783 237.965 56.5783H236.265C235.751 56.5783 235.191 56.4218 234.767 56.1311C234.454 55.9074 233.962 55.3931 233.805 55.1471C233.537 54.7669 233.425 54.342 233.425 53.8948V53.5146C233.425 53.0673 233.514 52.6201 233.805 52.2399C233.962 52.0163 234.454 51.5019 234.767 51.2783C235.169 50.9876 235.728 50.831 236.265 50.831H239.15V50.1154C239.016 49.9141 238.702 49.6011 238.434 49.4445C238.389 49.4445 238.345 49.3998 238.3 49.3998H236.489C236.287 49.3998 235.84 49.8247 235.728 49.9812C235.683 50.0259 235.661 50.0483 235.661 50.0707L233.716 49.4892C233.917 48.9972 234.744 48.1922 235.057 47.9686C235.437 47.7002 236.041 47.4766 236.533 47.4766H238.322C238.837 47.4766 239.418 47.6331 239.843 47.9238C240.156 48.1475 240.67 48.6394 240.827 48.9078C241.118 49.3103 241.185 49.78 241.185 50.2049V54.6998L241.364 56.5336H239.306L239.329 56.4889ZM239.15 52.7766H236.265C236.265 52.7766 236.153 52.7766 236.131 52.7766C235.907 52.9108 235.594 53.2239 235.46 53.4699V53.8948C235.594 54.1407 235.907 54.4315 236.131 54.5656C236.131 54.5656 236.22 54.6104 236.265 54.6104H237.875C238.099 54.6104 238.971 53.9395 239.15 53.7606V52.7542V52.7766Z"
            fill="white" />
        <path
            d="M247.491 46.0901H247.312C247.133 46.2019 246.686 46.515 246.664 46.7163V47.5884H248.095V49.5564H246.664V56.4442H244.584V49.5564H243.197V47.5884H244.584V46.8505C244.584 46.4256 244.673 45.9559 244.964 45.5758C245.12 45.3521 245.635 44.8154 245.948 44.5918C246.35 44.3011 246.932 44.1445 247.446 44.1445H249.191V46.1125H247.469L247.491 46.0901Z"
            fill="white" />
        <path
            d="M253.44 49.5564V53.8277C253.596 54.0514 253.977 54.521 254.267 54.521H255.989V56.4889H254.245C253.731 56.4889 253.172 56.3547 252.747 56.0417C252.411 55.818 251.919 55.259 251.763 55.0353C251.494 54.6328 251.36 54.1855 251.36 53.7383V49.5787H249.974V47.5884H251.36V44.1445H253.44V47.5884H256.012V49.5787H253.44V49.5564Z"
            fill="white" />
        <path d="M261.379 53.9395H258.852V56.4888H261.379V53.9395Z" fill="white" />
        <path
            d="M276.966 56.467V48.0808L274.439 53.4479H273.052L270.57 48.1032V56.467H268.445V44.2344H270.905L273.768 50.2724L276.63 44.2344H279.045V56.467H276.966Z"
            fill="white" />
        <path
            d="M287.231 56.4889L287.164 56.064C286.784 56.3323 286.336 56.5783 285.867 56.5783H284.167C283.653 56.5783 283.094 56.4218 282.669 56.1311C282.356 55.9074 281.864 55.3931 281.685 55.1471C281.416 54.7669 281.305 54.342 281.305 53.8948V53.5146C281.305 53.0673 281.416 52.6201 281.685 52.2399C281.841 52.0163 282.356 51.5019 282.669 51.2783C283.094 50.9876 283.63 50.831 284.167 50.831H287.052V50.1154C286.918 49.9141 286.605 49.6011 286.359 49.4445C286.314 49.4445 286.269 49.3998 286.225 49.3998H284.391C284.19 49.3998 283.742 49.8247 283.63 49.9812C283.586 50.0259 283.563 50.0483 283.563 50.0707L281.618 49.4892C281.819 48.9972 282.646 48.1922 282.96 47.9686C283.34 47.7002 283.944 47.4766 284.436 47.4766H286.225C286.739 47.4766 287.32 47.6331 287.745 47.9238C288.058 48.1475 288.573 48.6394 288.729 48.9078C289.02 49.3103 289.087 49.78 289.087 50.2049V54.6998L289.266 56.5336H287.209L287.231 56.4889ZM287.074 52.7766H284.19C284.19 52.7766 284.078 52.7766 284.055 52.7766C283.832 52.9108 283.519 53.2239 283.362 53.4699V53.8948C283.496 54.1407 283.809 54.4315 284.055 54.5656C284.055 54.5656 284.145 54.6104 284.19 54.6104H285.8C286.023 54.6104 286.895 53.9395 287.052 53.7606V52.7542L287.074 52.7766Z"
            fill="white" />
        <path
            d="M297.316 56.4663V50.1823C297.316 50.1823 297.316 50.0928 297.316 50.0481C297.182 49.8245 296.914 49.5561 296.668 49.3996C296.668 49.3996 296.556 49.3996 296.489 49.3996H295.035C294.633 49.3996 294.074 49.9363 293.805 50.227V56.4663H291.726V49.3549L291.524 47.5211H293.604L293.671 47.946C294.051 47.6776 294.499 47.4316 294.968 47.4316H296.511C297.026 47.4316 297.607 47.5882 298.01 47.8789C298.323 48.1025 298.837 48.6169 298.994 48.8629C299.284 49.2654 299.374 49.7127 299.374 50.1376V56.4663H297.294H297.316Z"
            fill="white" />
        <path
            d="M307.246 56.4889L307.178 56.064C306.798 56.3323 306.351 56.5783 305.881 56.5783H304.182C303.667 56.5783 303.108 56.4218 302.683 56.1311C302.37 55.9074 301.878 55.3931 301.7 55.1471C301.431 54.7669 301.319 54.342 301.319 53.8948V53.5146C301.319 53.0673 301.431 52.6201 301.7 52.2399C301.856 52.0163 302.37 51.5019 302.683 51.2783C303.108 50.9876 303.667 50.831 304.182 50.831H307.067V50.1154C306.955 49.9141 306.619 49.6011 306.373 49.4445C306.329 49.4445 306.284 49.3998 306.239 49.3998H304.405C304.204 49.3998 303.757 49.8247 303.645 49.9812C303.6 50.0259 303.578 50.0483 303.578 50.0707L301.632 49.4892C301.834 48.9972 302.661 48.1922 302.974 47.9686C303.377 47.7002 303.958 47.4766 304.45 47.4766H306.239C306.754 47.4766 307.335 47.6331 307.76 47.9238C308.073 48.1475 308.587 48.6394 308.766 48.9078C309.057 49.3103 309.124 49.78 309.124 50.2049V54.6998L309.303 56.5336H307.246V56.4889ZM307.089 52.7766H304.204C304.204 52.7766 304.092 52.7766 304.07 52.7766C303.846 52.9108 303.533 53.2239 303.377 53.4699V53.8948C303.533 54.1407 303.846 54.4315 304.07 54.5656C304.07 54.5656 304.159 54.6104 304.204 54.6104H305.814C306.038 54.6104 306.91 53.9395 307.089 53.7606V52.7542V52.7766Z"
            fill="white" />
        <path
            d="M319.366 49.4232V57.2503C319.366 57.6752 319.299 58.1672 319.009 58.5473C318.852 58.7933 318.338 59.3077 318.025 59.5313C317.6 59.822 316.996 60.0009 316.504 60.0009H314.693C314.201 60.0009 313.597 59.7773 313.194 59.5089C312.859 59.2853 312.076 58.4802 311.875 57.9883L313.798 57.4068C313.798 57.4068 313.798 57.4515 313.865 57.4963C313.977 57.6528 314.424 58.0777 314.626 58.0777H315.542H316.504C316.549 58.0777 316.593 58.0777 316.638 58.033C316.817 57.9212 317.309 57.5634 317.331 57.3845V56.1545C316.974 56.4005 316.549 56.6018 316.102 56.6018H314.514C314.022 56.6018 313.418 56.4452 312.993 56.1545C312.658 55.9309 312.166 55.3718 312.009 55.1482C311.718 54.7456 311.629 54.2984 311.629 53.8511V50.2283C311.629 49.8034 311.718 49.3338 312.009 48.9536C312.166 48.73 312.68 48.1709 312.993 47.9473C313.396 47.6565 313.999 47.5 314.514 47.5H316.102C316.593 47.5 317.108 47.7684 317.466 48.0591L317.533 47.6118H319.59L319.411 49.4679L319.366 49.4232ZM317.309 50.3848C317.018 50.0717 316.303 49.4232 316.012 49.4232H314.491C314.491 49.4232 314.402 49.4232 314.38 49.4679C314.156 49.6245 313.82 49.9152 313.664 50.1612V50.273V53.8064V53.9182C313.82 54.1642 314.156 54.4549 314.38 54.6114C314.38 54.6114 314.447 54.6114 314.491 54.6114H316.102C316.482 54.4102 317.041 53.9629 317.309 53.6498V50.4072V50.3848Z"
            fill="white" />
        <path
            d="M323.973 53.0682V53.8285V53.9404C324.152 54.2534 324.577 54.656 324.778 54.656H326.791C326.992 54.656 327.439 54.2311 327.551 54.0969C327.596 54.0522 327.618 54.0298 327.618 54.0074L329.542 54.5889C329.34 55.0809 328.535 55.8859 328.222 56.1096C327.82 56.3779 327.216 56.5792 326.724 56.5792H324.778C324.264 56.5792 323.682 56.445 323.258 56.1543C322.944 55.9307 322.43 55.394 322.251 55.1703C321.983 54.7902 321.849 54.3429 321.849 53.8733V50.161C321.849 49.7137 321.983 49.2665 322.251 48.8863C322.408 48.6627 322.944 48.126 323.258 47.9023C323.66 47.6116 324.241 47.4551 324.778 47.4551H326.679C327.193 47.4551 327.775 47.6116 328.2 47.9023C328.513 48.126 329.027 48.6403 329.184 48.8863C329.474 49.2888 329.564 49.7361 329.564 50.161V53.0682H323.951H323.973ZM327.506 50.2057V50.1163C327.372 49.915 327.059 49.5796 326.791 49.423C326.746 49.423 326.701 49.423 326.657 49.423H324.778C324.577 49.423 324.13 49.8256 323.951 50.1163V51.1003H327.484V50.1834L327.506 50.2057Z"
            fill="white" />
        <path
            d="M342.109 56.4672V50.1832C342.109 50.1832 342.109 50.0937 342.109 50.049C341.975 49.8254 341.706 49.557 341.46 49.4005C341.46 49.4005 341.349 49.4005 341.282 49.4005H340.32C339.917 49.4005 339.358 49.9372 339.09 50.2279V56.4672H337.01V50.1832C337.01 50.1832 337.01 50.0937 337.01 50.049C336.876 49.8254 336.585 49.557 336.362 49.4005C336.362 49.4005 336.272 49.4005 336.205 49.4005H335.244C334.707 49.4005 334.282 49.9372 334.014 50.2279V56.4672H331.934V49.3557L331.755 47.522H333.835L333.879 47.9469C334.26 47.6785 334.707 47.4325 335.176 47.4325H336.205C336.719 47.4325 337.301 47.5891 337.726 47.8798C337.882 47.9916 338.128 48.2152 338.33 48.4165L338.799 48.0587C339.157 47.7903 339.806 47.4102 340.298 47.4102H341.326C341.841 47.4102 342.422 47.5667 342.825 47.8574C343.138 48.081 343.652 48.5954 343.809 48.8414C344.099 49.2439 344.189 49.6912 344.189 50.1161V56.4448H342.109V56.4672Z"
            fill="white" />
        <path
            d="M348.483 53.0682V53.8285V53.9404C348.662 54.2534 349.087 54.656 349.288 54.656H351.301C351.502 54.656 351.949 54.2311 352.061 54.0969C352.106 54.0522 352.128 54.0298 352.128 54.0074L354.051 54.5889C353.85 55.0809 353.067 55.8859 352.732 56.1096C352.352 56.3779 351.748 56.5792 351.234 56.5792H349.288C348.774 56.5792 348.192 56.445 347.767 56.1543C347.454 55.9307 346.94 55.394 346.783 55.1703C346.515 54.7902 346.381 54.3429 346.381 53.8733V50.161C346.381 49.7137 346.515 49.2665 346.783 48.8863C346.94 48.6627 347.477 48.126 347.767 47.9023C348.192 47.6116 348.751 47.4551 349.288 47.4551H351.189C351.703 47.4551 352.285 47.6116 352.71 47.9023C353.023 48.126 353.537 48.6403 353.694 48.8863C353.984 49.2888 354.074 49.7361 354.074 50.161V53.0682H348.461H348.483ZM352.016 50.2057V50.1163C351.882 49.915 351.569 49.5796 351.323 49.423C351.278 49.423 351.234 49.423 351.189 49.423H349.31C349.109 49.423 348.662 49.8256 348.483 50.1163V51.1003H352.016V50.1834V50.2057Z"
            fill="white" />
        <path
            d="M362.034 56.4663V50.1823C362.034 50.1823 362.034 50.0928 362.034 50.0481C361.9 49.8245 361.609 49.5561 361.386 49.3996C361.386 49.3996 361.274 49.3996 361.229 49.3996H359.776C359.373 49.3996 358.814 49.9363 358.546 50.227V56.4663H356.466V49.3549L356.265 47.5211H358.344L358.412 47.946C358.792 47.6776 359.239 47.4316 359.709 47.4316H361.252C361.766 47.4316 362.347 47.5882 362.772 47.8789C363.085 48.1025 363.6 48.6169 363.756 48.8629C364.047 49.2654 364.136 49.7127 364.136 50.1376V56.4663H362.057H362.034Z"
            fill="white" />
        <path
            d="M369.168 49.5564V53.8277C369.325 54.0514 369.705 54.521 369.996 54.521H371.718V56.4889H369.973C369.459 56.4889 368.9 56.3547 368.475 56.0417C368.14 55.818 367.648 55.259 367.469 55.0353C367.2 54.6328 367.066 54.1855 367.066 53.7383V49.5787H365.68V47.5884H367.066V44.1445H369.146V47.5884H371.718V49.5787H369.146L369.168 49.5564Z"
            fill="white" />
        <path
            d="M384.197 56.4657H381.379L386.746 51.3445H377.354V49.3319H386.791L381.356 44.166H384.197L390.615 50.3382L384.197 56.4657Z"
            fill="white" />
    </g>
    <defs>
        <clipPath id="clip0_1_3">
            <rect width="391" height="60" fill="white" />
        </clipPath>
    </defs>
</svg>